<?xml version="1.0" encoding="utf-8"?>
<!-- Generator: Adobe Adobe Illustrator 29.1.0, SVG Export Plug-In . SVG Version: 6.00 Build 0)  -->
<svg version="1.1" id="Layer_1" xmlns="http://www.w3.org/2000/svg" xmlns:xlink="http://www.w3.org/1999/xlink" x="0px" y="0px"
	 viewBox="0 0 100 100" style="enable-background:new 0 0 100 100;" xml:space="preserve">
<style type="text/css">
	.st0{fill:#030303;}
	.st1{fill:#050505;}
	.st2{fill:#000101;}
	.st3{fill:#060606;}
	.st4{fill:#070707;}
</style>
<g>
	<g>
		<g>
			<path class="st0" d="M90.74,13.23c0.01-3.26-2.05-6.66-6.46-6.45c-4.39,0.21-8.8,0.05-13.2,0.04c-0.32,0-0.66,0.09-1.04-0.13
				c0-0.97,0-1.96,0-2.95c-0.01-1.82-0.72-2.52-2.56-2.52c-11.97,0-23.93,0-35.9,0c-0.23,0-0.47-0.01-0.7,0.01
				c-1.08,0.09-1.64,0.59-1.7,1.68c-0.07,1.28-0.02,2.57-0.02,3.92c-0.56,0-0.92,0-1.28,0c-3.73,0-7.47-0.01-11.2,0
				c-1.65,0-3.16,0.54-4.13,1.86c-0.99,1.35-1.42,2.94-1.42,4.68c0.03,25.54,0.02,51.08,0.02,76.62c0,0.5-0.03,1.01,0.06,1.5
				c0.34,1.77,0.92,3.48,2.69,4.28c1.17,0.52,2.46,0.71,3.79,0.7c7.53-0.04,15.07-0.02,22.7-0.02c3.33,0,6.57,0,9.8,0
				c11.47,0,22.93,0,34.4-0.01c3.13,0,5.21-1.64,5.92-4.59c0.19-0.81,0.21-1.65,0.21-2.49c0-18.5,0-37.01-0.01-55.51
				C90.73,26.97,90.71,20.1,90.74,13.23z M32.84,8.33c0.28-0.73,0.92-0.75,1.58-0.75c7.56,0,15.12,0,22.78,0c2.2,0,4.3,0.01,6.4,0
				c0.81,0,1.55,0.17,1.57,1.12c0.02,0.95-0.71,1.16-1.53,1.16c-9.76-0.01-19.52,0-29.28-0.01C33.17,9.84,32.52,9.17,32.84,8.33z
				 M86.57,88.53c-0.05,1.89-1.11,2.94-3.01,2.94c-18,0.01-36,0.01-54,0.01c-4,0-8,0-12,0c-1.74,0-2.09-0.37-2.09-2.13
				c0-25.1,0-50.21,0-75.31c0-1.82,0.63-2.46,2.44-2.46c3.7-0.01,7.39,0,11.07,0c0.5,2.27,0.69,2.42,3,2.42c11.67,0,23.33,0,35,0
				c2.15,0,2.38-0.17,3.07-2.27c0.03-0.08,0.22-0.1,0.42-0.15c4.56,0,9.03-0.01,13.49,0c1.96,0,2.6,0.67,2.6,2.65
				c0,24.37,0,48.74,0,73.11C86.57,87.73,86.58,88.13,86.57,88.53z"/>
		</g>
	</g>
	<path class="st1" d="M63.14,44.74c-4.5,5.11-10.03,7.49-16.71,6.05c-9.92-2.14-15.6-11.85-13.06-20.85
		c0.65-2.29,1.86-4.31,3.32-6.2c1.2-1.56,2.63-2.77,4.43-3.55c0.15-0.07,0.29-0.16,0.44-0.23c0.76-0.35,1.44-0.3,1.91,0.46
		c0.4,0.64,0.14,1.35-0.69,1.82c-1.14,0.64-2.22,1.34-3.16,2.25c-3.84,3.76-5.38,10.19-2.94,15.26c0.61,1.28,1.1,2.61,2.09,3.7
		c4.46,4.92,12.2,6.71,18.43,2.89c1.61-0.99,3.15-2.03,4.19-3.59c2.92-4.37,3.63-8.97,1.53-13.97c-1.66-3.94-4.55-6.4-8.45-7.74
		c-1.63-0.56-3.39-0.58-5.12-0.57c-1.21,0.01-1.85-0.44-1.85-1.32c0-0.85,0.68-1.38,1.81-1.43c3.47-0.16,6.63,0.79,9.6,2.55
		C67.12,25.14,69.65,37.03,63.14,44.74z"/>
	<path class="st2" d="M50.81,65.77c6.93,0,13.76,0,20.59,0c0.7,0,1.52-0.1,1.79,0.73c0.32,1.01,0.46,2.1-0.14,3.08
		c-0.34,0.56-0.98,0.47-1.55,0.47c-8.06,0-16.12,0-24.19,0c-5.53,0-11.06,0-16.59,0c-1.44,0-1.66-0.22-1.69-1.68
		c-0.05-2.54,0.02-2.6,2.49-2.6C37.92,65.77,44.31,65.77,50.81,65.77z"/>
	<path class="st3" d="M59.01,60.54c-9.6,0-19.1,0.01-28.6,0.02c-0.7,0-1.46,0.01-1.6-0.82c-0.15-0.92-0.39-1.92,0.37-2.76
		c0.27-0.3,0.62-0.19,0.93-0.19c14.4-0.01,28.8-0.01,43.2,0c1.27,0,1.63,0.42,1.65,1.81c0.02,1.46-0.35,1.92-1.66,1.93
		C68.58,60.55,63.84,60.54,59.01,60.54z"/>
	<path class="st3" d="M72.06,80.97c-9.92,0.01-19.75,0.01-29.57,0.01c-1.42,0-1.83-0.42-1.84-1.86c0-0.37-0.02-0.74,0.01-1.1
		c0.08-0.9,0.56-1.39,1.5-1.39c1.3,0,2.6,0,3.9,0c8.46,0,16.93,0,25.39-0.02c0.91,0,1.67,0.1,1.89,1.17
		C73.68,79.57,73.33,80.53,72.06,80.97z"/>
	<path class="st1" d="M45.46,41.58c3.25,1.77,6.41,1.7,9.52-0.16c4.12-2.46,5.78-7.18,4.02-11.44c-0.21-0.51-0.57-0.96-0.85-1.45
		c-0.52-0.9-0.4-1.64,0.32-2.1c0.69-0.44,1.38-0.17,1.98,0.72c3.93,5.8,1.83,13.29-4.17,16.78c-7.45,4.32-15.46-0.07-17.87-6.88
		c-0.2-0.56-0.29-1.16-0.37-1.75c-0.14-1.02,0.38-1.79,1.19-1.87c0.78-0.08,1.42,0.5,1.55,1.49c0.13,1,0.39,1.93,0.89,2.82
		C42.58,39.35,43.8,40.62,45.46,41.58z"/>
	<path class="st4" d="M36.48,76.65c0.71,0.1,0.97,0.48,1.02,1.1c0.06,0.73,0.05,1.45-0.01,2.19c-0.06,0.77-0.51,1.04-1.18,1.05
		c-2,0.01-3.99,0.01-5.99,0.01c-0.74,0-1.18-0.36-1.26-1.11c-0.01-0.13-0.02-0.26-0.03-0.4c-0.14-2.69,0-2.84,2.66-2.84
		C33.26,76.64,34.82,76.64,36.48,76.65z"/>
	<g>
		<g>
			<path class="st3" d="M56.56,29.01c-1.19,0.01-2.29,0.04-3.39,0.01c-0.72-0.02-1.26,0.21-1.7,0.81c-0.66,0.9-1.38,1.75-2.1,2.65
				c-1.23-1.1-2.37-2.12-3.51-3.14c-0.85-0.75-1.35-0.73-2.09,0.13c-0.58,0.68-1.12,1.4-1.67,2.12c-0.76,1-0.74,1.26,0.17,2.09
				c2.41,2.18,4.83,4.33,7.22,6.53c0.64,0.59,1.12,0.59,1.62-0.14c1.13-1.63,2.51-3.07,3.75-4.61c1.32-1.63,2.2-3.35,2.67-5.36
				C57.74,29.22,57.53,28.91,56.56,29.01z M54.38,32.01c-0.13,0.3-0.28,0.6-0.48,0.85c-1.09,1.39-2.19,2.76-3.3,4.13
				c-0.22,0.27-0.53,0.48-0.83,0.74c-2.16-1.43-3.75-3.39-5.62-5.09c0.17-0.56,0.62-0.87,0.88-1.28c0.65,0.08,0.74,0.7,1.19,1.02
				c0.94,0.85,1.85,1.63,2.7,2.47c0.52,0.52,0.88,0.43,1.3-0.1c0.95-1.2,1.93-2.38,2.89-3.56c0.21-0.26,0.46-0.62,0.8-0.35
				C54.23,31.11,54.6,31.49,54.38,32.01z"/>
		</g>
	</g>
</g>
</svg>
