<?xml version="1.0" encoding="UTF-8"?>
<svg id="Layer_1" xmlns="http://www.w3.org/2000/svg" viewBox="0 0 18.25 18.25">
  <defs>
    <style>
      .cls-1 {
        fill: #bcbec0;
      }
    </style>
  </defs>
  <path class="cls-1" d="M9.12,0C4.08,0,0,4.08,0,9.12s4.08,9.12,9.12,9.12,9.12-4.08,9.12-9.12S14.16,0,9.12,0ZM15.02,8.7l-4.74,4.74c-.32.32-.74.45-1.16.42-.42.03-.84-.1-1.16-.42l-4.74-4.74c-.59-.59-.59-1.54,0-2.12s1.54-.59,2.12,0l3.78,3.78,3.78-3.78c.59-.59,1.54-.59,2.12,0,.59.59.59,1.54,0,2.12Z"/>
</svg>